<svg height="200" viewBox="0 0 1024 1024" width="200" 
    xmlns="http://www.w3.org/2000/svg">
    <g fill="#39af78">
        <path d="m867.7 232.3c-8.4-1.6-17-3.3-25.3-5.2-8.1-1.8-16.1 3.3-17.9 11.4s3.3 16.1 11.4 17.9l14.1 3v188.6c0 58.5-6.1 129.4-51.1 211-24.3 44-58.4 87.8-101.4 130-47.6 46.8-107.7 93.4-178.6 138.6-19.2-12.2-37.7-24.5-55.2-36.7-6.8-4.8-16.1-3.1-20.9 3.7s-3.1 16.1 3.7 20.9c20.3 14.2 42 28.6 64.5 42.6 2.4 1.5 5.2 2.3 7.9 2.3 2.8 0 5.5-.8 8-2.3 76.3-47.9 140.7-97.6 191.7-147.7 45-44.3 80.9-90.4 106.6-136.9 21.9-39.7 36.8-79.8 45.5-122.5 8.3-40.8 9.4-76.5 9.4-103v-201c-.2-7.2-5.3-13.4-12.4-14.7zm-682.9 347.4c1.2 0 2.3-.1 3.5-.4 8.1-1.9 13-10 11.1-18.1-10.3-42.9-11.6-81.3-11.6-113.2v-188.4c78.8-14.5 153.5-41.8 222.3-81.2 49.1-28.1 84.8-56.4 109.2-77.4 28 22.6 80.8 63.6 156.5 99.9 7.5 3.6 16.4.4 20-7 3.6-7.5.4-16.4-7-20-77.9-37.4-130.8-80.1-156.2-100.7-1.5-1.2-2.9-2.4-4.3-3.4-5.7-4.6-13.9-4.4-19.4.5-23.2 20.6-60.2 51.6-113.7 82.2-69.4 39.7-145 66.6-224.8 79.8-7.2 1.2-12.5 7.5-12.5 14.8v201c0 33.7 1.5 74.3 12.5 120.2 1.5 6.8 7.6 11.4 14.4 11.4z"/>
        <path d="m924.8 103.8c-5.9-5.9-15.4-5.9-21.2 0l-124.4 124.5-22.4-22.4c-14.2-14.2-37.2-14.2-51.4 0l-10.6 10.6c-12.5-8.7-27.4-13.4-43-13.4-20.2 0-39.2 7.9-53.5 22.1l-400.4 400.5-31.5-31.5c-5.9-5.9-15.4-5.9-21.2 0-5.9 5.9-5.9 15.4 0 21.2l90.2 90.2-72.1 72.1-42.1-42.1c-5.9-5.9-15.4-5.9-21.2 0-5.9 5.9-5.9 15.4 0 21.2l52.7 52.7 119.1 119.1c2.9 2.9 6.8 4.4 10.6 4.4s7.7-1.5 10.6-4.4c5.9-5.9 5.9-15.4 0-21.2l-42-42 72.1-72.1 90.2 90.2c2.9 2.9 6.8 4.4 10.6 4.4s7.7-1.5 10.6-4.4c5.9-5.9 5.9-15.4 0-21.2l-31.5-31.5 400.5-400.5c26.2-26.2 29.1-67 8.7-96.4l10.6-10.6c6.9-6.9 10.6-16 10.6-25.7s-3.8-18.8-10.6-25.7l-22.4-22.4 124.5-124.5c5.8-5.8 5.8-15.3-.1-21.2zm-695.1 740.4-45.3-45.3 72.1-72.1 45.3 45.3zm552.5-435.1-71.6 71.6-61.4-61.4c-5.9-5.9-15.4-5.9-21.2 0-5.9 5.9-5.9 15.4 0 21.2l61.4 61.4-46.2 46.2-61.4-61.4c-5.9-5.9-15.4-5.9-21.2 0-5.9 5.9-5.9 15.4 0 21.2l61.4 61.4-46.2 46.2-61.4-61.4c-5.9-5.9-15.4-5.9-21.2 0-5.9 5.9-5.9 15.4 0 21.2l61.4 61.4-46.2 46.2-61.4-61.3c-5.9-5.9-15.4-5.9-21.2 0-5.9 5.9-5.9 15.4 0 21.2l61.4 61.4-103.9 103.8-162.6-162.6 398.9-398.9c8.6-8.6 20.1-13.4 32.2-13.4s23.6 4.7 32.2 13.4l98.1 98.1c17.9 17.8 17.9 46.7.1 64.5zm21.2-111.5c0 1-.2 2.9-1.9 4.5l-9.7 9.7-75-75 9.7-9.7c2.5-2.5 6.5-2.5 8.9 0l66 66c1.8 1.6 2 3.5 2 4.5z"/>
    </g>
</svg>